<svg version="1.1" id="Calque_1" xmlns="http://www.w3.org/2000/svg" xmlns:xlink="http://www.w3.org/1999/xlink" x="0" y="0" viewBox="0 0 800 438" xml:space="preserve"><style>.st0{fill:none}.st1{fill:#054752}.st2{fill:#fff}.st3{fill:#004753}.st4{fill:#eae8f5}.st6{clip-path:url(#SVGID_3_);fill:#669aa2}.st8{fill:#91b7bc}.st12,.st8{clip-path:url(#SVGID_3_)}.st15{fill:#2e5862}.st16{fill:#d3e2e4}.st17,.st18{fill:none;stroke-miterlimit:10}.st17{stroke-width:4;stroke:#054752}.st18{stroke:#fff;stroke-linecap:round;stroke-linejoin:round}.st19{opacity:.4;fill:#fff}.st20{fill:#947347}.st25{fill:#e9ca91}.st26,.st28{fill:#cd904d}.st28{opacity:.67}.st30{fill:#a9b7c0}.st32{fill:#01353a}.st35,.st36,.st38{fill:#2ed1ff}.st36,.st38{opacity:.45}.st38{fill:#fff}.st39{fill:#004553}.st40{opacity:.49}.st41,.st42{fill:#ce914d}.st42{opacity:.67}.st45{fill:#033}.st47,.st51{fill:#eacb92}.st51{opacity:.59}.st54{opacity:.45;fill:#054752}.st267{fill:none;stroke:#054752;stroke-width:5;stroke-miterlimit:10}</style><pattern x="-882.5" y="1558" width="50" height="50" patternUnits="userSpaceOnUse" id="Horizontal_line_3" viewBox="0 -50 50 50" overflow="visible"><path class="st0" d="M0-50h50V0H0z"/><path class="st1" d="M0-50h50v6.3H0z"/><path class="st2" d="M0-43.7h50v6.3H0z"/><path class="st1" d="M0-37.5h50v6.3H0z"/><path class="st2" d="M0-31.2h50v6.3H0z"/><path class="st1" d="M0-24.9h50v6.3H0z"/><path class="st2" d="M0-18.7h50v6.3H0z"/><path class="st1" d="M0-12.4h50v6.3H0z"/><path class="st2" d="M0-6.3h50V0H0z"/></pattern><pattern x="-882.5" y="1558" width="50" height="50" patternUnits="userSpaceOnUse" id="Horizontal_line_5" viewBox="0 -50 50 50" overflow="visible"><path class="st0" d="M0-50h50V0H0z"/><path class="st3" d="M0-50h50v6.3H0z"/><path class="st2" d="M0-43.7h50v6.3H0z"/><path class="st3" d="M0-37.5h50v6.3H0z"/><path class="st2" d="M0-31.2h50v6.3H0z"/><path class="st3" d="M0-24.9h50v6.3H0z"/><path class="st2" d="M0-18.7h50v6.3H0z"/><path class="st3" d="M0-12.4h50v6.3H0z"/><path class="st2" d="M0-6.3h50V0H0z"/></pattern><pattern x="-882.5" y="1558" width="50.9" height="47" patternUnits="userSpaceOnUse" id="Unnamed_Pattern_23" viewBox="50.9 -94.2 50.9 47" overflow="visible"><path class="st0" d="M50.9-94.2h50.9v47H50.9z"/><path class="st3" d="M101.7-47.5h50.9V0h-50.9z"/><path class="st3" d="M50.9-47.5h50.9V0H50.9zM0-47.5h50.9V0H0z"/><path class="st3" d="M101.7-94.6h50.9v47.5h-50.9z"/><path class="st3" d="M50.9-94.6h50.9v47.5H50.9z"/><path class="st4" d="M63.8-89.5H62v-4.6h1.8zM71.3-87.4l-1.5 1.1-2.7-3.8 1.5-1.1z"/><path transform="rotate(-78.854 66.658 -81.075)" class="st4" d="M65.8-83.4h1.8v4.7h-1.8z"/><path class="st4" d="M73.5-80.9l-1.3-1.2 2.9-3.6 1.4 1.2zM77.9-74.5l-1.8-.1.4-4.7 1.8.2zM67.8-73l.9-1.6 4.1 2.3-.9 1.6zM55.1-87.3l-1.5 1-2.7-3.8 1.5-1zM57.3-80.9l-1.4-1.2 3-3.5 1.4 1.1z"/><path transform="rotate(-5.228 60.95 -76.857) scale(.99996)" class="st4" d="M60.1-79.2h1.8v4.7h-1.8z"/><path transform="rotate(-29.07 54.054 -72.64)" class="st4" d="M51.7-73.5h4.7v1.8h-4.7z"/><g><path transform="rotate(-89.881 79.713 -91.834)" class="st4" d="M77.4-92.7h4.7v1.8h-4.7z"/><path class="st4" d="M88.1-87.4l-1.5 1.1-2.7-3.9 1.5-1z"/><path transform="rotate(-78.954 83.481 -81.089)" class="st4" d="M82.6-83.4h1.8v4.7h-1.8z"/><path class="st4" d="M90.4-81L89-82.1l3-3.6 1.4 1.2z"/><path transform="matrix(.9962 -.08667 .08667 .9962 7.02 7.859)" class="st4" d="M93.1-79.2h1.8v4.7h-1.8z"/><path transform="rotate(-28.955 87.124 -72.7)" class="st4" d="M84.8-73.6h4.7v1.8h-4.7z"/></g><g><path transform="rotate(-89.884 95.486 -91.856)" class="st4" d="M93.2-92.8h4.7v1.8h-4.7z"/><path transform="rotate(-78.89 99.255 -81.115)" class="st4" d="M98.4-83.4h1.8v4.7h-1.8z"/></g><g><path transform="rotate(-89.886 62.921 -68.221)" class="st4" d="M60.6-69.1h4.7v1.8h-4.7z"/><path class="st4" d="M71.3-63.8l-1.5 1.1-2.6-3.8 1.4-1.1z"/><path transform="rotate(-78.708 66.694 -57.488)" class="st4" d="M65.8-59.8h1.8v4.7h-1.8z"/><path transform="rotate(-40.111 74.37 -59.714)" class="st4" d="M73.5-62h1.8v4.7h-1.8z"/><path transform="rotate(-5.125 77.217 -53.29)" class="st4" d="M76.3-55.6h1.8v4.7h-1.8z"/><path class="st4" d="M67.9-49.4l.8-1.6 4.1 2.3-.9 1.5z"/></g><g><path class="st4" d="M55.1-63.7l-1.5 1-2.7-3.8 1.5-1z"/><path transform="rotate(-40.157 58.148 -59.694)" class="st4" d="M57.2-62H59v4.7h-1.8z"/><path transform="rotate(-4.963 60.992 -53.27) scale(1.00005)" class="st4" d="M60.1-55.6h1.8v4.7h-1.8z"/><path transform="rotate(-29.144 54.1 -49.056)" class="st4" d="M51.8-50h4.7v1.8h-4.7z"/></g><g><path class="st4" d="M80.7-65.9h-1.8l-.1-4.7h1.8z"/><path transform="rotate(-54.69 86.066 -65.173)" class="st4" d="M83.7-66.1h4.7v1.8h-4.7z"/><path class="st4" d="M81.4-56.2l-.3-1.7 4.5-.9.4 1.7z"/><path transform="rotate(-40.173 91.202 -59.74)" class="st4" d="M90.3-62.1h1.8v4.7h-1.8z"/><path transform="rotate(-5.065 94.044 -53.318)" class="st4" d="M93.1-55.6h1.8v4.7h-1.8z"/><path class="st4" d="M84.7-49.4l.9-1.6 4 2.2-.8 1.6z"/></g><g><path class="st4" d="M96.4-65.9h-1.8v-4.7h1.8zM97.2-56.2l-.4-1.8 4.6-.9.4 1.8z"/></g><g><path class="st3" d="M0-94.6h50.9v47.5H0z"/></g><g><path class="st3" d="M101.7-141.6h50.9v47.5h-50.9z"/></g><g><path class="st3" d="M50.9-141.6h50.9v47.5H50.9z"/></g><g><path class="st3" d="M0-141.6h50.9v47.5H0z"/></g></pattern><linearGradient id="SVGID_1_" gradientUnits="userSpaceOnUse" x1="401.335" y1="393.733" x2="400.008" y2="-4.753"><stop offset="0" stop-color="#fff"/><stop offset=".093" stop-color="#f7fdff"/><stop offset=".239" stop-color="#e0f8ff"/><stop offset=".419" stop-color="#bcf0ff"/><stop offset=".627" stop-color="#89e5ff"/><stop offset=".856" stop-color="#48d7ff"/><stop offset=".943" stop-color="#2ed1ff"/></linearGradient><path fill="url(#SVGID_1_)" d="M.5 0h800v286H.5z"/><g><defs><path id="SVGID_144_" d="M.5 100.4h800V438H.5z"/></defs><clipPath id="SVGID_3_"><use xlink:href="#SVGID_144_" overflow="visible"/></clipPath><path class="st6" d="M18.6 190.8s45.1-2.1 82.3-15.2c0 0 36.2 11.5 56.6 15.2s60.8-2.1 73.4 4.2c0 0 26.2 16.2 40.9 17.8 14.7 1.6 35.6 2.6 49.3-4.7s16.2-2.6 22.5 0 14.1 9.4 34.1-4.7c19.9-14.1 28.3-18.9 37.7-15.7 9.4 3.1 27.8 18.3 79.6 32 51.9 13.6 83.3-11 83.3-11s6.3-6.8 23.1-6.8 69.2-2.1 69.2-2.1L409.4 373.2 75.7 257.9l-57.1-67.1z"/><path d="M1150.8-44.4s-55.5 83.3-103.2 88.5c0 0-22 5.2-24.6 13.1-2.6 7.9-8.4 18.3-18.3 18.9-10 .5-29.3 8.9-48.7 0s-41.4-8.4-57.6 4.2c-16.2 12.6-89.1 59.7-124.2 74.9-35.1 15.2-50.3 4.7-50.3 4.7S487 307.1 379.6 358l107.9 76.5 577.9-38.2 116.8-33.5-31.4-407.2z" clip-path="url(#SVGID_3_)" fill="#a7c6ca"/><path class="st8" d="M-311.5 24.7s41.9-4.7 71.3 9.4 115.3 80.2 148.8 90.1 62.4 9.4 80.7 19.9c18.3 10.5 43.5 37.7 79.6 55.5S326.7 344.9 422 347.5l-12.6 25.7-342.1-6.8-260.4-167.7-118.4-174z"/><path d="M-426-118s27.2-12.6 44.5 0S-283 84.2-79.2 207.9c0 0 136 85.7 209.3 97.2S257 357.4 323 351.2s117.9 11.5 145.1 11.5c27.2 0 282.4-7.3 282.4-7.3l181.3-5.8-649.7 84.9h-707.9L-426-118z" clip-path="url(#SVGID_3_)" fill="#bdd4d7"/><path class="st6" d="M-438.8 380s205.9 29.9 620.9 23.6L136 420.9l-276.7 6.8-301.8-4.2 3.7-43.5z"/><path class="st8" d="M358.1 396.2s-52.9-8.9-73.4-6.8c-20.4 2.1-128.9 16.8-128.9 16.8s-22.5 2.6-65 1.6c0 0-24.1 0-41.9 3.1-17.8 3.1-113.7 11-135.2 10.5s-347.4-4.7-347.4-4.7v17.8l316.5 20.4 393.5-16.2 92.2-23.6-10.4-18.9z"/><path d="M120.2 406.7s-8.9 2.1-5.8 5.2c3.1 3.1 11.5 4.7 7.9 7.9-3.7 3.1-15.2 6.3-41.4 7.9-26.2 1.6-177.1 4.7-177.1 4.7l-127.8 3.1-284.5-1V446l363.1-6.3 123.1-3.7 106.4-4.2s37.7-3.1 41.9-7.3c4.2-4.2.5-8.9-1.6-10s-7.9-2.1-7.9-3.7 3.7-4.1 3.7-4.1z" clip-path="url(#SVGID_3_)" fill="#cddadc"/><path d="M1169.2 264.2s-574.3 96.4-782.8 122.6c0 0-116.8 17.8-137.3 29.9s94.8 3.1 94.8 3.1-132 14.7-269.8 21.5-500.4 0-500.4 0v8.9L50 469l1111.8-3.7 7.4-201.1z" clip-path="url(#SVGID_3_)" fill="#538c94"/><path d="M724 408.7c0-3.5-3.7-6.4-8.3-6.4-1.2 0-2.4.2-3.4.6-2-2.3-5-3.7-8.2-3.7-4.4 0-8.2 2.6-10 6.3-.4-.1-.7-.1-1.1-.1-3.7 0-6.7 2.8-6.7 6.3H723c.7-.9 1-1.9 1-3z" fill="#91b7bc"/><g class="st12"><path class="st16" d="M350.5 426.6c0-3.5-3.7-6.4-8.2-6.4-1.2 0-2.4.2-3.4.6-2-2.3-4.9-3.7-8.2-3.7-4.4 0-8.1 2.5-9.9 6.2-.4-.1-.7-.1-1.1-.1-3.7 0-6.6 2.8-6.6 6.2h36.5c.5-.8.9-1.8.9-2.8z"/></g><g class="st12"><path class="st16" d="M164.9 414.5c0-1.8-1.9-3.3-4.3-3.3-.6 0-1.2.1-1.8.3-1.1-1.2-2.6-1.9-4.3-1.9-2.3 0-4.3 1.3-5.2 3.3h-.6c-1.9 0-3.5 1.5-3.5 3.3h19.1c.4-.6.6-1.1.6-1.7z"/></g><g class="st12"><path class="st16" d="M276.2 400.4c0-1.8-1.9-3.3-4.3-3.3-.6 0-1.2.1-1.8.3-1.1-1.2-2.6-1.9-4.3-1.9-2.3 0-4.3 1.3-5.2 3.3h-.6c-1.9 0-3.5 1.5-3.5 3.3h19.1c.4-.6.6-1.2.6-1.7z"/></g><g class="st12"><path class="st17" d="M656.8 342.3v15"/><path class="st15" d="M665.6 331.3h-.4c-.4-3-3.2-5.4-6.7-5.4-2.8 0-5.2 1.6-6.2 3.8-.7-.5-1.5-.8-2.4-.8-2.2 0-4 1.8-4 4 0 1.8 1.2 3.3 2.8 3.8-.4.8-.7 1.6-.7 2.6 0 2.9 2.4 5.3 5.3 5.3.8 0 1.5-.2 2.2-.5 1.1.7 2.4 1.2 4 1.2 2.9 0 5.4-1.7 6-3.9h.2c2.8 0 5-2.2 5-5s-2.3-5.1-5.1-5.1z"/></g><g class="st12"><path class="st17" d="M691.4 336v15"/><path class="st15" d="M700.2 325h-.4c-.4-3-3.2-5.4-6.7-5.4-2.8 0-5.2 1.6-6.2 3.8-.7-.5-1.5-.8-2.4-.8-2.2 0-4 1.8-4 4 0 1.8 1.2 3.3 2.8 3.8-.4.8-.7 1.6-.7 2.6 0 2.9 2.4 5.3 5.3 5.3.8 0 1.5-.2 2.2-.5 1.1.7 2.4 1.2 4 1.2 2.9 0 5.4-1.7 6-3.9h.2c2.8 0 5-2.2 5-5s-2.3-5.1-5.1-5.1z"/></g><g class="st12"><path class="st17" d="M722.9 329.7v15"/><path class="st15" d="M731.7 318.7h-.4c-.4-3-3.2-5.4-6.7-5.4-2.8 0-5.2 1.6-6.2 3.8-.7-.5-1.5-.8-2.4-.8-2.2 0-4 1.8-4 4 0 1.8 1.2 3.3 2.8 3.8-.4.8-.7 1.6-.7 2.6 0 2.9 2.4 5.3 5.3 5.3.8 0 1.5-.2 2.2-.5 1.1.7 2.4 1.2 4 1.2 2.9 0 5.4-1.7 6-3.9h.2c2.8 0 5-2.2 5-5s-2.4-5.1-5.1-5.1z"/></g><g class="st12"><path class="st19" d="M433.2 213.7l21.2-18.7 28.7-11.8H550l15.3 11.8v12.3l-72.8 8.2h-37z"/><path d="M473.9 197.5c-.4.5-.8.9-1.2 1.3-.7.7-2.7 2.3-2.7 4.1 0 3.1 2.1 3.6 3.5 3.7.4 0 .8.2 1.2.1.6-.2 1.9-.7 2.2-1.3 1.1-1.7-.5-4.9 0-6.8.3-1 .8-3.3-.7-3.8-.5-.2-1 0-1.2.5-.4.7-.6 1.5-1.1 2.2z"/><path class="st20" d="M474.4 198.5l3.6.1s1.9 2.6 1.6 6.8c0 .2-4.3 1.2-4.3 1.2l-.9-8.1z"/><path d="M477.5 199.2c-.1 0-.1 3-2.6 3.6l-.5-4.1 3.1.5z" opacity=".64" fill="#947347"/><path class="st20" d="M473.4 194.8c.2.8-.1 1.1-.2 1.7-.1 2.5-.4 3.4 1.4 3.8.9.2 3.5-1 3.7-1.4.8-1.2 1.9-2.9 2-4.2.1-2.7-1.9-4.1-3.7-4.2-1-.1-2.6.8-3 1.9-.5 1.2-.5 1.3-.2 2.4z"/><path class="st20" d="M475.1 194.6c-.1-.2-.3-.3-.5-.3-.2-.1-.5 0-.8 0-.1 0-.1-.2 0-.2h.8c.2.1.4.2.6.4.1.1 0 .2-.1.1z"/><circle cx="474.4" cy="195.1" r=".2"/><path class="st20" d="M473.4 194.8c0 .1-.1.6-.5 1.1-.2.3.2.6.4.6h-.1c.9-.6.2-1.7.2-1.7z"/><path d="M473.4 196.7l.9.6c-.1.5-.9.5-.9.5s-.7-.2-.2-.6c.1 0-.3-.4.2-.5z" fill="#573a22"/><pattern id="SVGID_4_" xlink:href="#Horizontal_line_3" patternTransform="matrix(-.5896 0 0 .5896 -9246.84 -3976.314)"/><path d="M473.3 214.5s4.8-4 4.5-4-2.9-5.3-2.9-5.3" fill="url(#SVGID_4_)"/><path class="st20" d="M479.9 205.9s.3 2.3-1.7 6.4c-2.1 4.1-9.4 9.4-9.9 9.6-3.5 1-3.6-1.8-2.8-3.2.6-1.2 2.2-3.9 6.6-9.2 2-2.5 5.5-5.9 7.8-3.6z"/><pattern id="SVGID_5_" xlink:href="#Horizontal_line_3" patternTransform="matrix(-.5285 .2614 .2614 .5285 -6572.035 -3009.195)"/><path fill="url(#SVGID_5_)" d="M474.9 206.3l-3.3 3.5 6 5.6"/><path class="st25" d="M484.7 212.8l-2.9 11.8-8.8.1-.9-12z"/><path class="st20" d="M482.1 224.6l-9-.1s-2.4 3.6.5 9.8c.3.7 1.8 6.9 1.8 6.9s7.3 2.1 10.6-.4c.3-.2 1.2-3.6 1.6-4.7 1.3-4.5-2.4-6.5-5.5-11.5z"/><path class="st25" d="M474.5 215s-4.5.4-4.5-2.3c0-1.4.1-.5 3.8-5.8"/><path class="st20" d="M471 214.8c-1.3-1.5-3-.1-3-.1-3.2 2.7-8.6 8.7-10 11.3-.3.5-.5.8-.6 1.1 0 0-.3.9.6 1.2.4.2 1.7-.9 1.7-.9 15-10 12.2-11.6 11.3-12.6zM455.9 231.7c.1-.1-.6.8-1 1.1-.1.1-.2.7-.5 1.1v1c0 .3-.3.5-.3.5l-.5-1.8.5-1.3.5-1.6s.4-.2 1 .2c.4.3.3.8.3.8z"/><path class="st20" d="M457.5 232.2c.2-.3.4-.9.5-1.1.5-.8.9-2.9 1.1-3.3.2-.4.5-1-.2-1.6-.8-.6-1.2.3-1.2.3-.2.4-.3.6-.5.8-.5.6-2 2.1-2.6 3.1 0 0-.1.7.3 1 .5.4 1 .1 1 .1.1-.1.2-.3.5-.1.3.3.4.7.3.9-.5.9-.5.9-.3 1.2.1-.1.9-.9 1.1-1.3z"/><path class="st20" d="M456.1 231.3s-.4.9-.7 1.3c-.1.1-.1.8-.3 1.2 0 .1.1.5.2.9.1.3-.2.5-.2.5l-.9-1.6.2-1.4.2-1.6s.4-.4 1-.1c.4.1.5.7.5.8z"/><g><path class="st20" d="M472.7 208.6c.9-1 3.1-6.3 3.1-6.3l4.9-.2s3.1 3.1 3.6 5.5.1 5.1.1 5.1h-11.2l-.5-4.1z"/></g><path class="st2" d="M482.1 203.5s-1.5 1.8-4.1 1.9c-2.5.1-3.1-.9-3.1-.9l-.5 1.1-4.4 6.4s-.9 2.1 2.3 2.9c3.2.9 0 0 0 0l.7 9.7 8.8-.1s4-11.4 3.2-15.4c-.8-3.9-2.9-5.6-2.9-5.6"/><g><path class="st20" d="M483.4 206.2s2.8 2.2 1.3 6.5c-.9 2.5-4.3 12.6-4.7 12.9-2.7 2.4-4 0-3.9-1.6 0-1.4.1-7.3 1.5-11.1 1.1-2.9 2.6-7.7 5.8-6.7z"/></g><g><path class="st20" d="M480.5 223.3c.8 1.9-1.2 2.8-1.2 2.8-3.8 1.8-11.5 4.1-14.4 4.4-.6 0-.9.1-1.3.1 0 0-.9-.1-.9-1 0-.5 1.5-1.2 1.5-1.2 15.5-9.6 15.7-6.4 16.3-5.1zM458.8 229.9c.1 0-1 .2-1.4.4-.1.1-.8-.1-1.2 0-.1 0-.5-.2-.8-.4-.3-.1-.6.1-.6.1l1.4 1.2 1.4.1 1.6.2s.4-.3.2-1c-.1-.5-.6-.6-.6-.6z"/><path class="st20" d="M458.9 228.2h1.2c1-.1 3 .4 3.5.4s1.1 0 1.4.8c.3 1-.8 1-.8 1-.5 0-.6 0-.9.1-.7.2-2.7.9-3.9 1.1 0 0-.7-.2-.7-.7-.2-.6.4-1 .4-1 .2 0 .4-.1.3-.4-.1-.4-.4-.6-.7-.6-1 .1-1.1 0-1.2-.3-.1 0 1-.4 1.4-.4z"/><path class="st20" d="M459.2 229.8s-1 0-1.4.1c-.1 0-.7-.2-1.2-.2-.1 0-.4-.3-.7-.6-.3-.2-.6 0-.6 0l1.1 1.5 1.4.4 1.6.5s.5-.2.5-.8c-.2-.4-.6-.9-.7-.9z"/></g><path class="st2" d="M484 215.8s3.4-9.3-1.1-9.8c-4-.5-6.1 8-6.1 8l7.2 1.8z"/><path d="M487.2 207c-.9.3-2 0-2.9-.3-1-.4-2-.8-2.9-1.3-.4-.2-.7-.4-1-.7-.3-.4-.4-.9-.5-1.4-.1-.6-.2-1.3.1-1.9.3-.5.8-.7 1.4-.8 1.8-.2 4 1.3 5.4 2.4.6.5 1.5 1.2 1.7 1.9.3.9-.4 1.9-1.3 2.1z"/><path d="M488.3 199.6c.5.2 1.1.4 1.3.9.2.3.2.7.2 1.1 0 .4 0 .8-.2 1.1-.3.5-.9.7-1.5.7-1.5 0-2.8-1.1-4.2-1.7-.6-.3-1.3-.5-1.8-.8-.6-.4-1-1-1-1.6.2-3.5 5.9-.2 7.2.3z"/><path d="M479.4 195.5c.6.5 1.5.7 2.2.4.2 1.5 1.3 2.8 2.6 3.7.4.2.8.4 1.2.5.4 0 .7-.1 1.1-.2.9-.3 1.8-.8 2.1-1.6.2-.6.2-1.3-.1-1.8-.3-.5-.9-.9-1.5-1-.5-.1-1.1.1-1.6 0-.6-.1-1.1-.5-1.5-.9-.6-.6-1.2-2-1.7-2.7-1.7-2.5-3.5-1.6-4.4-1.6-1.8.2.4 4.2 1.6 5.2z"/><path d="M477 192.7c-.1 0-3.7.6-4.7-.9-.9-1.4.3-3.6 2.8-3.3 3.1.4 6.1 2.7 6.4 4.1.5 2.4-4.5.1-4.5.1z"/><path d="M474.1 191.4s1.2 4.6 2.8 4.4c1.6-.2 1.8-2.8 1.8-2.8l-4.6-1.6z"/><path d="M475.3 192.1s3 2.2 2.1 5.1c-1.6 5.2-.1 8.2 2.7 9.2 2.8 1 6.6 1 6.7.6s-4.4-13.9-4.4-13.9l-7.1-1z"/><path class="st20" d="M477 195.8s.6-.7 1-.4c.3.4-.1 1.7-.5 1.5s-.7-.4-.7-.4l.2-.7z"/><path class="st20" d="M477.4 195.9c.1-.1.3-.1.3.1v.1c0 .1 0 .2-.1.3-.1.1-.1.1-.2 0"/><g><path class="st3" d="M455.8 220.8c.2 0 .5-.1.7-.2.8-.4 1.1-1.4.7-2.1l-6.1-11.5c-.4-.8-1.4-1.1-2.1-.7-.8.4-1.1 1.4-.7 2.1l6.1 11.5c.3.6.8.9 1.4.9z"/></g><g><path class="st26" d="M525.8 216.3c-1.4-.8-2.4.7-2.4.7-2 3-4.8 9-5.4 11.4-.1.5-.2.7-.2 1 0 0 0 .8.8.8.4 0 1.2-1.1 1.2-1.1 9.5-11.9 6.9-12.2 6-12.8z"/><path class="st26" d="M524.1 202.1s3.6 0 3.5 4.8c0 2.2-.7 11.2-.9 11.6-1.5 2.6-3.1.8-3.4-.5-.3-1.1-.8-6-1.1-9.4-.2-2.1-.7-6.7 1.9-6.5zM533.4 220.4l-10.1.2s.5 5.2.8 7.2c.1.6.9 5.3.9 5.3s5.8 1.8 8.5-.3c.3-.2.6-1.6.8-2.5 1.1-3.6 1.6-5.6-.9-9.9z"/><path class="st26" d="M519.5 202.6l2.8-3.3s7.2 1.2 8.8 5c2.6 6.3 2.6 16.3 2.6 16.3l-10.3.1-3.9-18.1z"/><path class="st26" d="M516.7 199l3.5-2.7s3 3.6 3.3 4.5c.1.2-4 2-4 2l-2.8-3.8z"/><path class="st26" d="M514.5 194.1c0 .3.3.6.2.8-.1.5 0 1 .1 1.3.6 2.1.3 2 .6 2.7.3.6.9.9 2.1.8.9 0 2.7-2 3-2.3 1.5-1.2 1.3-4.7 1-6.1-.6-2.9-3-2.7-4.5-1.9-2.3 1.1-2.6 3.7-2.5 4.7zM516 193.8c-.1-.1-.6-.2-1.3.2"/><circle cx="515.4" cy="195.2" fill="#014753" r=".2"/><path class="st26" d="M514.8 194.3c-.5 1.3-.6 1.7-.3 1.9 0 0 .3.2.6 0 .1-.1-.3-1.9-.3-1.9z"/><path class="st28" d="M518.9 199.1c-.1 0 .6 1.8 0 2.9l-1.7-2.3 1.7-.6z"/><path d="M516.8 198.3c-.8.2-1.2-1.2-1.2-1.4" opacity=".67" fill="none" stroke="#cd904d" stroke-width="1.02" stroke-miterlimit="10"/><path class="st28" d="M515 195.3c.1.3.4.6.7.7.3.1 1 0 1.1-.6"/><path class="st30" d="M515.8 196.8c-.3-.2-.7-.5-1-.4v1.4l1.5-.1c.1 0-.3-.7-.5-.9z"/><pattern id="SVGID_6_" xlink:href="#Horizontal_line_5" patternTransform="translate(-1978.916 -3146.177) scale(.5684)"/><path d="M522.5 199.3s7.6 1.3 9 5c.2.4 1.7 4.5 2.1 10.8s-.1 5.5-.1 5.5l-10.3.1-3.8-17.5c.1 0 3.5-1.7 3.1-3.9z" fill="url(#SVGID_6_)"/><path class="st26" d="M527.1 202s2.8 2.2-.1 5.9c-1.4 1.8-7.4 8.5-7.8 8.7-2.8 1.1-2.9-1.2-2.4-2.5.5-1 3.1-5.3 4.8-8.2 1.1-1.7 3.5-5.6 5.5-3.9z"/><path class="st26" d="M519.8 214.3c-.6-1.5-2.4-.9-2.4-.9-3.3 1.2-9.3 4.3-11.2 5.8-.4.3-.6.5-.8.7 0 0-.5.6.1 1.1.3.2 1.6-.2 1.6-.2 14.9-3.6 13.1-5.5 12.7-6.5zM502.9 223c.1 0-.7.4-1.1.6-.1 0-.4.5-.7.7 0 0-.1.4-.2.7-.1.3-.4.3-.4.3l.1-1.5.8-.9.9-1s.4 0 .7.4c.1.3-.1.7-.1.7z"/><path class="st26" d="M504 223.8c.2-.1.6-.5.7-.7.6-.5 1.5-1.9 1.8-2.2.3-.3.7-.6.3-1.2-.4-.7-1.1-.1-1.1-.1-.3.2-.4.4-.6.5-.5.3-2.2 1-3 1.6 0 0-.3.5 0 .8.3.4.8.3.8.3.1-.1.3-.1.4 0 .2.3.1.6 0 .8-.7.5-.6.6-.5.8.1.1.9-.3 1.2-.6z"/><path class="st26" d="M503.2 222.7s-.6.6-.9.7c-.1 0-.3.6-.6.8 0 0 0 .4-.1.8 0 .3-.3.3-.3.3l-.3-1.4.6-1 .6-1.2s.4-.2.8.2c.2.3.2.8.2.8z"/><path class="st32" d="M527.1 202s2.8 2.2-.1 5.9c-1.4 1.8-7.4 8.5-7.8 8.7-2.8 1.1-2.9-1.2-2.4-2.5.5-1 3.1-5.3 4.8-8.2 1.1-1.7 3.5-5.6 5.5-3.9z"/><path class="st32" d="M519.5 214.4c-.6-1.5-2.4-.9-2.4-.9-3.3 1.2-9.3 4.3-11.2 5.8-.4.3-.6.5-.8.7 0 0-.5.6.1 1.1.3.2 1.6-.2 1.6-.2 14.9-3.5 13.1-5.4 12.7-6.5z"/><path class="st26" d="M517.7 233.5c0-.1-.3.8-.5 1.1-.1.1 0 .6-.2 1 0 .1.1.4.3.7.1.3-.1.4-.1.4l-.8-1.2.1-1.2V233s.3-.3.8-.1c.3.2.4.5.4.6z"/><path class="st26" d="M519.1 233.4c.1-.2.1-.8.2-1 .2-.8 0-2.4.1-2.8.1-.4.2-.9-.5-1.2-.8-.3-.9.6-.9.6-.1.4-.1.5-.2.7-.2.6-1.1 2.1-1.4 3.1 0 0 .1.5.5.7.5.2.8-.2.8-.2.1-.1.1-.3.3-.2.3.1.5.4.4.6-.2.8-.1.9.1 1 .1-.1.4-.9.6-1.3z"/><path class="st26" d="M517.7 233.1s-.1.8-.3 1.2c0 .1.1.6 0 1 0 .1.2.4.4.6.1.2 0 .5 0 .5l-1.1-1-.1-1.1-.2-1.3s.2-.4.7-.3c.3-.1.6.3.6.4z"/><path class="st28" d="M519 194.6s.3 1-.1 1.2c-.3.2-.6.2-.6.2s.5 1.4 1.1.9c.7-.5-.4-2.3-.4-2.3z"/><path class="st30" d="M512.9 191.7c-.7-.4-1.2-1.3-1.2-2.1.1-.8.6-1.6 1.4-2 .3-.1.6-.2.9-.1.7.1 1.2.7 1.8 1 .2-.4.8-.7 1.3-.6s.9.4 1.2.8c.1.1.2.3.3.3.1 0 .2-.1.3-.1.6-.3 1.3 0 1.7.4.9.8 2.1 1.3 1.5 3.8-.3 1.2-.4 2-.8 3.2-1.1.4-2.5.2-2.3-1.3-.2.2-1.1-.2-1.3-.4-.2-.2-.2-2.8-2.1-3-.9-.1-1.6.7-2.7.1z"/><path class="st26" d="M518.1 195.2s.2-1 .7-.7.4 1.4 0 1.4c-.4-.1-.7-.2-.7-.2v-.5z"/><path class="st26" d="M518.5 195.1c0-.2.1-.3.3-.2v.4c0 .1-.2.1-.2.1l-.1-.3z"/></g><g><path opacity=".18" fill="#8e405f" d="M593.1 278.2l-238.1-1 11.1-5.2 210.4-.8z"/><path d="M493.6 212.2s6.8 12.3 4.5 19.9c-3.1 10.4-9.9 24.7-9.9 24.7" fill="none" stroke="#000" stroke-width=".294" stroke-miterlimit="10"/><path class="st1" d="M365.9 233.1c0-16.8 68.7-21 68.7-21l149.7-.1 3.8-.1 1.9 37.2-9.2 8.4H371.3c-3.3 0-5.8-2.7-5.2-5.6l.6-3.2s-.6-14.4-.8-14.6c-1.5-1.6 0-.8 0-1z"/><path class="st35" d="M528.7 223h9.5c.4 0 .7-.3.7-.7v-1.2c0-.4-.3-.7-.7-.7h-9.5c-.4 0-.7.3-.7.7v1.2c0 .4.3.7.7.7zM477.5 223h9.5c.4 0 .7-.3.7-.7v-1.2c0-.4-.3-.7-.7-.7h-9.5c-.4 0-.7.3-.7.7v1.2c-.1.4.3.7.7.7z"/><path class="st2" d="M380.5 226.7s-.9 9.6-4.2 9.6c-7 0-11.4.2-11.4.2s-.5-7 5.7-9c4.8-1.5 9.9-.8 9.9-.8z"/><path class="st36" d="M425.5 257.1h116.7l2.8-11H421.5z"/><path transform="rotate(-180 479.575 260.64)" class="st35" d="M425.5 259h108.1v3.3H425.5z"/><path class="st35" d="M572 262.3h12.8v-1.5c0-1-.8-1.8-1.8-1.8h-11v3.3z"/><path transform="rotate(-180 377.612 260.64)" class="st35" d="M366.6 259h22v3.3h-22z"/><path class="st2" d="M590 219.1h-15s-.2 10.5 8.4 12c7.2 1.3 6.7.2 6.7.2l-.1-12.2z"/><path class="st35" d="M575.1 218.2h14.8c.7 0 1.2-.5 1.2-1.2v-2c0-.7-.5-1.2-1.2-1.2h-14.8c-.7 0-1.2.5-1.2 1.2v2c0 .7.6 1.2 1.2 1.2z"/><path class="st1" d="M531.4 209.6c.7-.1 4.5-.5 9.3-1.2l.8 4.2h-46.8l.1-.7c12.5-.5 25.5-1.3 36.6-2.3z"/><path class="st1" d="M564.3 202c.5-2.2-11.3-16.2-22.1-16.5h-3.3l-.1-.3h-2.4l.1.3c-9.2-.1-27-.1-37.7-.2v-.1h-5.1v.1h-.5c-29.6 0-53.3 24.3-53.3 24.3 0-.1 1.8 2 2.7 3.1h-13.7s2-1.4 10.9-9.7c6.9-6.4 26.8-21.2 51.3-21.2 17.3 0 69-.5 69.6-.5 7.2 0 8.7 2.9 7.6 7.6-1.4 5.4 18.9 21.5 19.8 23.8h-44.4l-.8-4.5c9.3-1.5 20.8-3.8 21.4-6.2z"/><path class="st1" d="M538.8 185.1l.1.3h-2.4l-.1-.3h2.4zM542.9 208.1l.8 4.5.5 2.7h-2.4l-.5-2.7-.8-4.2-4.1-23h2.4l4.1 22.7zM475.9 212.6c4.4-.1 8.9-.3 13.6-.5l4.2-26.9v-.1h5.1v.1l-4.1 26.7-.1.7-.4 2.5H489l.4-2.5h-13.5z"/><path class="st35" d="M372.5 240c2.2 0 6.2 7.6 6.2 11.2 0 3.6-4 6.6-6.2 6.6h-1.8c-2.8 0-5.1-2.3-5.1-5.1v-6.4c0-.9.7-6.3 1.6-6.3h5.3zM591 233.9s-12.9-2.5-19 4.6-8.5 18.8-8.5 18.8l17.6.1c4.8 0 10 .1 10-9.7l-.1-13.8z"/><path class="st36" d="M366.1 239.3h12.4c.6 0 1.1-.5 1.1-1.1 0-.6-.5-1.1-1.1-1.1h-12.4M445.3 206.8v15.6c-2.9 0-5.3-2.4-5.3-5.3v-5c-.1-2.9 2.3-5.3 5.3-5.3z"/><path class="st38" d="M439.7 236.9h46.7c1.4 0 2.5-1.1 2.5-2.5v-4.2c0-1.4-1.1-2.5-2.5-2.5h-46.7c-1.4 0-2.5 1.1-2.5 2.5v4.2c.1 1.4 1.2 2.5 2.5 2.5zM501 236.9h31c1.4 0 2.5-1.1 2.5-2.5v-4.2c0-1.4-1.1-2.5-2.5-2.5h-31c-1.4 0-2.5 1.1-2.5 2.5v4.2c0 1.4 1.2 2.5 2.5 2.5z"/><path class="st36" d="M589.1 222c-1.9 0-3.5 1.6-3.5 3.5s1.6 3.5 3.5 3.5"/><g><path class="st2" d="M425.9 257.6c0-10.7-8.7-19.4-19.4-19.4s-19.4 8.7-19.4 19.4"/><path class="st39" d="M390.5 257.9c0 3.2.9 6.2 2.6 8.7 2.8 4.4 7.8 7.3 13.4 7.3 8.8 0 16-7.2 16-16 0-3.9-1.4-7.6-3.8-10.3-2.9-3.5-7.3-5.7-12.2-5.7-8.8 0-16 7.1-16 16z"/><g class="st40"><path class="st39" d="M393.1 266.6c2.8 4.4 7.8 7.3 13.4 7.3 8.8 0 16-7.2 16-16 0-3.9-1.4-7.6-3.8-10.3l-8.1 6-9.4 7-8.1 6z"/></g><path class="st2" d="M400.6 257.9c0 3.3 2.7 5.9 5.9 5.9 3.3 0 5.9-2.7 5.9-5.9 0-3.3-2.7-5.9-5.9-5.9-3.3-.1-5.9 2.6-5.9 5.9z"/></g><g><path class="st2" d="M572.4 257.6c0-10.7-8.7-19.4-19.4-19.4s-19.4 8.7-19.4 19.4"/><path class="st39" d="M537 257.9c0 3.2.9 6.2 2.6 8.7 2.8 4.4 7.8 7.3 13.4 7.3 8.8 0 16-7.2 16-16 0-3.9-1.4-7.6-3.8-10.3-2.9-3.5-7.3-5.7-12.2-5.7-8.8 0-16 7.1-16 16z"/><g class="st40"><path class="st39" d="M539.6 266.6c2.8 4.4 7.8 7.3 13.4 7.3 8.8 0 16-7.2 16-16 0-3.9-1.4-7.6-3.8-10.3l-8.1 6-9.4 7-8.1 6z"/></g><path class="st2" d="M547.1 257.9c0 3.3 2.7 5.9 5.9 5.9 3.3 0 5.9-2.7 5.9-5.9 0-3.3-2.7-5.9-5.9-5.9-3.2-.1-5.9 2.6-5.9 5.9z"/></g></g><g><path class="st19" d="M373.6 222.6l-21.8-19.4-29.7-12.1H253l-15.8 12.1v12.7l75.2 8.5h38.2z"/><path class="st3" d="M310 240.1c0 .6-.5 1-1 1h-5.1c-.6 0-1-.5-1-1 0-.6.5-1 1-1h5.1c.5 0 1 .4 1 1z"/><path class="st41" d="M315.1 216.2s-1.1 2.7.1 4.9c1.5 2.6 7.7 13.5 8.2 13.8 3.3 2.3 4.2-1.1 3.9-2.9-.2-1.7-.5-6.3-2.4-10.4-1.7-3.7-5.1-10.1-9.8-5.4z"/><path class="st41" d="M315.3 221.3l4.4 13.3 11.2.1.9-13.1z"/><path class="st41" d="M318.1 239.4c-.1.2-2.2 3.1-2.5 5.8-.3 2.7 2.5 6.2 2.5 6.2l10.8.1 1.3-7.5.6-9.6-11.2.2c.1 0-.8 3.2-1.5 4.8zM326.6 203.9l-6.3.1s-1 2.8-.8 8.1c0 .2 5.4 1.8 5.4 1.8l1.7-10z"/><path class="st41" d="M330.7 217.2c-1.2-2.2-5.5-7.1-5.5-7.1l-5.6-.9s-4 2.8-5 7.6c0 .2.3 5.2.3 5.2h16.9c.1-.1-1.1-4.7-1.1-4.8zM328.4 198.8c-.1.3-.3.8-.3 1.1 0 .6.3 1.2.3 1.5-.1 2.8.5 2.5.3 3.5-.2.8-1.2.8-2.8 1.1-1.2.2-4.2-1.1-4.7-1.3-2.3-1-3.1-5.4-3.1-7.2 0-3.8 3.1-4.2 5.4-3.8 1.2.2 2.2.7 3 1.4 1.4 1.1 2 3.4 1.9 3.7z"/><path d="M326.2 198.8c.2-.2 1.1-.8 2-.1"/><circle class="st3" cx="327.2" cy="199.8" r=".3"/><path class="st41" d="M328 199.2c.4 1.3 1 1.9 1.2 2.5 0 .1-.7.2-.8.2 0-.1-.4-2.7-.4-2.7z"/><path class="st42" d="M323.1 206.2c.1.1-.7 3.5 2.4 4.4l.8-4.6-3.2.2z"/><path class="st41" d="M328.5 202.4s-.8.2-.8.4c0 .3.9.3.9.3l-.1-.7z"/><path d="M330.8 195.7c0-.7-.7-1.3-1.4-1.2-.3 0-.5.2-.8.2-.3 0-.6-.1-.7-.3-.1-.2.1-.5.1-.7.1-.6-.4-1.1-.9-1.3s-1.2.3-1.8.3c-1.7-.1-3.3-.5-5.4.8l2.2 1.8c-.1-.1-.2.2-.2.3.1.8.6 1.6 1.3 2.1.3.3.7.5 1.2.6 2.9.5.7-2.5 3.4-1.6.8.4 1.2.8 1.9.6.7-.3 1.2-.9 1.1-1.6z"/><path d="M326.9 195.6s-3.4-4.4-8.4-1.4c-3.1 1.8-1.7 6.4 1.7 10.3 0 .1 1.5-.3 1.9-1 .5-.8.5-3.3.5-3.3l1.8.4s.5-1.9.5-2.3c.3-1.5 2-2.7 2-2.7z"/><path class="st42" d="M322.3 199.6s-.1 1.3.5 1.5c.4.2.8 0 .8 0s-.2 1.9-1.2 1.5c-1-.5-.1-3-.1-3z"/><path class="st41" d="M323.6 200s-.6-1.2-1.1-.7-.3 1.7.7 1.7c.6 0 .7-.1.7-.1l-.3-.9z"/><path class="st41" d="M323.1 200c0-.2-.3-.3-.4-.1v.2c0 .1 0 .2.1.3.1.1.2.1.3 0v-.4z"/><pattern id="SVGID_7_" xlink:href="#Unnamed_Pattern_23" patternTransform="matrix(.2193 0 0 .2238 -4122.017 -6349.175)"/><path d="M319.2 209.3l8.2 3 3.5 4.9 1 4.1-1.4 19.8-12-2.8 1.3-3.9-4.9-13.3s-1.2-5 1.2-7.9 3.1-3.9 3.1-3.9" fill="url(#SVGID_7_)"/><path fill="none" stroke="#fff" stroke-width=".836" stroke-linecap="round" stroke-linejoin="round" stroke-miterlimit="10" d="M319 209.2l8.7 3.3"/><path class="st45" d="M318.4 208.7s12 4.1 13 9.8c.6 3.1.3 3.6.3 3.6s-3.3-9.6-14.8-11.6"/><pattern id="SVGID_8_" xlink:href="#Horizontal_line_5" patternTransform="translate(-1978.916 -3146.177) scale(.5684)"/><path d="M280.5 223s-5.1-4.3-4.8-4.3 3.1-5.7 3.1-5.7" fill="url(#SVGID_8_)"/><path class="st47" d="M273.4 213.9s-.4 2.5 1.8 6.8c2.2 4.4 10 10 10.5 10.2 3.7 1.1 3.8-1.9 3-3.4-.6-1.3-2.4-4.2-7-9.8-2.1-2.7-5.8-6.3-8.3-3.8z"/><pattern id="SVGID_9_" xlink:href="#Horizontal_line_5" patternTransform="matrix(.5095 .2521 -.2521 .5095 -4537.059 -2129.307)"/><path fill="url(#SVGID_9_)" d="M278.7 214.3l3.6 3.7-6.4 6"/><path class="st47" d="M268.3 221.3l3.1 12.5 9.4.1 1-12.8z"/><path class="st47" d="M271.1 233.8l9.6-.1s2.6 3.8-.5 10.4c-.3.7-1.9 7.3-1.9 7.3s-7.8 2.3-11.4-.4c-.4-.3-1.3-3.9-1.7-5.1-1.4-4.7 2.6-6.8 5.9-12.1zM279.2 223.5s4.8.4 4.8-2.4c0-1.5-.1-.5-4.1-6.2M285.8 230.9c1.4 1.6 3.2.1 3.2.1 3.4-2.9 9.1-9.4 10.6-12.1.3-.5.5-.8.6-1.2 0 0 .3-1-.6-1.3-.5-.2-1.8.9-1.8.9-16 10.9-13 12.5-12 13.6zM301.8 212.7c-.1.1.6-.8 1-1.2.1-.1.3-.8.6-1.2v-1c0-.4.3-.5.3-.5l.6 1.9-.5 1.4-.5 1.7s-.5.2-1-.2c-.6-.3-.5-.8-.5-.9z"/><path class="st47" d="M300.1 212.2c-.2.3-.4.9-.6 1.1-.5.9-.9 3.1-1.1 3.5-.3.5-.5 1.1.2 1.7.8.7 1.3-.4 1.3-.4.2-.4.3-.6.5-.9.5-.6 2.1-2.2 2.8-3.3 0 0 .1-.7-.4-1-.6-.4-1.1-.1-1.1-.1-.1.1-.3.3-.5.2-.3-.3-.4-.7-.3-1 .5-1 .5-1 .3-1.3-.1.2-.9 1-1.1 1.5z"/><path class="st47" d="M301.6 213.2s.4-.9.8-1.3c.1-.1.1-.8.3-1.3 0-.1-.1-.5-.2-1-.1-.4.2-.6.2-.6l1 1.7-.2 1.5-.2 1.8s-.4.4-1 .1c-.6-.2-.8-.9-.7-.9zM281.1 216.7c-.9-1-3.3-6.7-3.3-6.7l-5.3-.2s-3.3 3.3-3.8 5.9c-.5 2.6-.1 5.5-.1 5.5h11.9c.1-.1.6-4.5.6-4.5z"/><pattern id="SVGID_10_" xlink:href="#Horizontal_line_5" patternTransform="translate(-1978.916 -3146.177) scale(.5684)"/><path d="M271.1 211.3s1.6 2 4.4 2c2.7.1 3.3-1 3.3-1l.6 1.1 4.6 7s1 2.2-2.4 3.1l-.8 10.4-9.4-.1s-4.3-12.2-3.5-16.5c.9-4.2 3.2-6 3.2-6" fill="url(#SVGID_10_)"/><g><path class="st47" d="M269.7 214.2s-3 2.4-1.4 6.9c1 2.7 4.6 13.4 5 13.8 2.9 2.6 4.2 0 4.2-1.8 0-1.4-.1-7.8-1.6-11.8-1.2-3.1-2.8-8.2-6.2-7.1z"/></g><g><path class="st47" d="M272.8 232.4c-.9 2 1.2 3 1.2 3 4 1.9 12.3 4.4 15.4 4.7.6.1 1 .1 1.4.1 0 0 1-.1.9-1.1 0-.5-1.6-1.3-1.6-1.3-16.4-10.2-16.6-6.8-17.3-5.4zM296 239.4c-.1 0 1 .2 1.5.4.1.1.8-.1 1.3 0 .1 0 .5-.3.9-.5.3-.2.6.1.6.1l-1.5 1.3-1.5.1-1.7.2s-.4-.3-.2-1c.1-.5.5-.6.6-.6z"/><path class="st47" d="M295.8 237.6c-.3-.1-1 0-1.3 0-1-.1-3.2.5-3.7.4-.5 0-1.2 0-1.5.9-.3 1 .9 1.1.9 1.1.5 0 .7 0 1 .1.8.2 2.9 1 4.1 1.2 0 0 .7-.2.8-.8.2-.7-.4-1-.4-1-.2-.1-.4-.1-.3-.4.1-.4.5-.7.8-.7 1.1.1 1.1 0 1.3-.3-.1-.1-1.2-.4-1.7-.5z"/><path class="st47" d="M295.5 239.4s1 0 1.5.1c.1 0 .8-.3 1.3-.2.1 0 .4-.4.8-.6.3-.2.6 0 .6 0l-1.2 1.6-1.5.4-1.7.6s-.5-.2-.5-.9c.1-.5.6-1 .7-1z"/></g><pattern id="SVGID_11_" xlink:href="#Horizontal_line_5" patternTransform="translate(-1978.916 -3146.177) scale(.5684)"/><path d="M269 224.4s-3.6-9.9 1.2-10.4c4.3-.5 6.5 8.5 6.5 8.5l-7.7 1.9z" fill="url(#SVGID_11_)"/><g><path class="st3" d="M276.9 194.9s2.8.3 3.4 3.5c.7 3.6 1 11.2 1 11.2l-12.9-.1c.1-.1-1.6-16.3 8.5-14.6z"/><path class="st47" d="M273.4 206l-1.2 4.8h5.7v-6z"/><path class="st51" d="M273.7 206.2c.1 0 0 2.7 4.3 3.2l-.2-4.4-4.1 1.2z"/><path class="st47" d="M279.6 201.7c0 2.9-1.5 5.2-4.1 5.2-2.6 0-4.1-2.4-4.1-5.3s1.5-5.2 4.1-5.2c2.6-.1 4.1 2.4 4.1 5.3z"/><path class="st3" d="M272.5 201.1c.2-.3 1.7-.4 2 0M276.8 201.2c.5-.5 2-.3 2.2.1"/><circle class="st3" cx="273.3" cy="201.9" r=".3"/><circle class="st3" cx="277.7" cy="201.9" r=".3"/><path class="st2" d="M274.4 203.8h2.3s-.2 1-1.2 1c-.9-.1-1.1-1-1.1-1z"/><path class="st47" d="M271.7 203.3h-.5c-.2 0-.3-.1-.3-.3v-1.3c0-.2.1-.3.3-.3h.5c.2 0 .3.1.3.3v1.3c0 .1-.2.3-.3.3zM279.6 203.3h-.5c-.2 0-.3-.1-.3-.3v-1.3c0-.2.1-.3.3-.3h.5c.2 0 .3.1.3.3v1.3c.1.1-.1.3-.3.3z"/><path class="st3" d="M273.3 196.7s-.7 3.4-.4 3.5c.3.1 3.7.1 3.7.1s.7-3.6.6-3.2c-.1.4.3 3.2.3 3.2l1.4.3s.9-5.6-1.6-5.5c-2.6.1-3.8.3-4 1.6z"/><path class="st51" d="M275.9 201.1v1.5l-.9.1s.8.8 1.3.4c.4-.3 0-1.9-.4-2zM271.5 201.8h-.2c-.1 0-.1 0-.2.1 0 .1 0 .1-.1.2v.3c0 .1.1.2.1.2h.2M279.4 201.8c.1 0 .2.1.2.2v.6c0 .1-.1.2-.2.1h-.1"/></g><path class="st45" d="M271.8 210.5l-1.6 1.9s10.9 6.6 10.3 20c-.6 13.4 0 0 0 0l.4.2s3.4-15.5-9.1-22.1"/><g><path class="st3" d="M351 224.1c-.2 0-.5-.1-.7-.2-.8-.4-1.1-1.4-.7-2.1l6.1-11.5c.4-.8 1.4-1.1 2.1-.7.8.4 1.1 1.4.7 2.1l-6.1 11.5c-.3.6-.8.9-1.4.9z"/><path class="st1" d="M316.1 215.1c0 .4-1.8 3.7 1.4 10.9 3.3 7.5 13.1 10.9 13.1 10.9l.3-3.3-14.8-18.5z"/><path class="st26" d="M331.7 227.2c.5 1.8 3 1.7 3 1.7 4.9-2 10.5-4.6 13.6-5.8.6-.2.7-.5 1-.7l-.4-2.4c-17.4 1.1-17.6 5.6-17.2 7.2zM352.9 218.6c-.1 0 1-.5 1.5-.6.1 0 .6-.6 1.1-.9.1 0 .2-.6.4-1s.5-.3.5-.3l-.3 2.1-1.1 1.1-1.3 1.4s-.5 0-.9-.7c-.3-.6.1-1.1.1-1.1z"/><path class="st26" d="M351.5 217.3c-.3.2-.8.7-1.1.8-.9.6-1 1-2.5 2.5-1.7 1.6-.2 2.8.7 2.3l.9-.6c.8-.4 3-1.2 4.1-1.9 0 0 .4-.7.1-1.2-.3-.7-1-.6-1-.6-.2.1-.4.2-.5-.1-.2-.4-.1-.7.3-1 .8-.6.9-1 .7-1.2-.3.4-1.2.7-1.7 1z"/><path class="st26" d="M352.5 218.9s.8-.7 1.3-.9c.1-.1.5-.8.9-1.1.1 0 .1-.6.2-1.1.1-.4.5-.4.5-.4l.1 2.1-.9 1.3-1 1.6s-.6.2-1-.4c-.3-.3-.2-1-.1-1.1zM316.8 217.4s.4 2.9 2.6 4.2c2.6 1.5 12.8 8.2 15.3 6.9 3.6-1.9 1.9-2.1.8-3.5-1.1-1.4-3.6-5.3-7.3-7.8-3.4-2.4-9.6-6.3-11.4.2z"/><pattern id="SVGID_12_" xlink:href="#Unnamed_Pattern_23" patternTransform="matrix(.1631 -.0834 .0851 .1664 -3594.721 -7411.86)"/><path d="M328.9 217.4l-4.9 7.2s-10.7-5.3-8.1-8.9c2.4-3.5 6.7-5.8 13 1.7z" fill="url(#SVGID_12_)"/><g><path class="st2" d="M324.4 225l5.1-6.9c.2-.2 0-.6-.2-.7-.3-.2-.5 0-.7.2l-5.1 6.9c-.2.2 0 .6.2.7.3.1.6 0 .7-.2z"/></g></g><path d="M310.8 220.3s-6.9 12.6-4.6 20.3c3.2 10.7 10.1 25.2 10.1 25.2" fill="none" stroke="#000" stroke-width=".587" stroke-miterlimit="10"/><path class="st35" d="M440.9 241.5c0-17.1-70-21.4-70-21.4l-152.7-.1-3.8-.1-2 37.9 9.4 8.5h213.6c3.4 0 5.9-2.7 5.3-5.7l-.6-3.3s.6-14.7.8-14.9c1.5-1.5 0-.7 0-.9z"/><path class="st1" d="M275 231.3h-9.7c-.4 0-.7-.3-.7-.7v-1.3c0-.4.3-.7.7-.7h9.7c.4 0 .7.3.7.7v1.3c0 .3-.3.7-.7.7zM327.2 231.3h-9.7c-.4 0-.7-.3-.7-.7v-1.3c0-.4.3-.7.7-.7h9.7c.4 0 .7.3.7.7v1.3c0 .3-.3.7-.7.7z"/><path class="st2" d="M426 235.1s.9 9.8 4.3 9.8c7.2 0 11.6.2 11.6.2s.5-7.1-5.8-9.1c-4.9-1.7-10.1-.9-10.1-.9z"/><path class="st54" d="M380.1 266H261.2l-2.9-11.2h126z"/><path class="st1" d="M269.9 268h110.2v3.4H269.9zM230.8 271.3h-13v-1.5c0-1 .8-1.8 1.8-1.8h11.2v3.3zM417.7 268h22.5v3.4h-22.5z"/><path class="st2" d="M212.5 227.3h15.3s.2 10.7-8.6 12.3c-7.4 1.3-6.9.2-6.9.2l.2-12.5z"/><path class="st1" d="M227.7 226.4h-15.1c-.7 0-1.2-.5-1.2-1.2v-2.1c0-.7.5-1.2 1.2-1.2h15.1c.7 0 1.2.5 1.2 1.2v2.1c0 .7-.6 1.2-1.2 1.2z"/><g><path class="st35" d="M272.2 217.6c-.7-.1-4.5-.5-9.4-1.2l-.8 4.3h47.7l-.1-.7c-12.8-.6-26.1-1.4-37.4-2.4zM314.9 220.2l.1.5h13.8c-4.4-.1-9.1-.3-13.9-.5z"/><path class="st35" d="M238.7 209.8c-.6-2.2 11.5-16.5 22.5-16.8h3.4l.1-.3h2.4l-.1.3c9.4-.1 27.5-.1 38.4-.2v-.1h5.2v.1h.5c30.1 0 54.3 24.8 54.3 24.8 0-.1-1.8 2-2.8 3.2h14s-2.1-1.4-11.1-9.9c-7-6.6-27.3-21.6-52.3-21.6-17.7 0-70.3-.5-71-.5-7.3 0-8.9 3-7.7 7.7 1.4 5.5-19.2 21.9-20.2 24.2h45.2l.8-4.6c-9.3-1.5-21-3.7-21.6-6.3z"/><path class="st35" d="M259.1 223.4h2.4l.5-2.7h-2.4zM267.1 192.6h-2.4l-.1.3h2.4l.1-.3zM260.4 216.1l-.8 4.6h2.4l.8-4.3-2.4-.3z"/><path class="st35" d="M264.6 192.9l-4.2 23.1c.8.1 1.6.2 2.3.3l4.2-23.5c-.8.1-1.6.1-2.3.1zM310.1 223.2h5.3l-.4-2.5h-5.2zM310.7 192.6h-5.2v.1h5.2v-.1zM309.6 220l.1.7h5.2l-.1-.5c-1.6-.1-3.4-.2-5.2-.2z"/><path class="st35" d="M305.5 192.7l4.2 27.2c1.8.1 3.5.2 5.3.2l-4.2-27.5c-1.5.1-3.3.1-5.3.1z"/></g><path class="st1" d="M434.2 248.6c-2.2 0-6.3 7.8-6.3 11.4 0 3.7 4.1 6.7 6.3 6.7h1.8c2.9 0 5.2-2.3 5.2-5.2V255c0-.9-.7-6.4-1.7-6.4h-5.3zM211.4 242.4s13.1-2.6 19.4 4.7c6.2 7.3 8.7 19.2 8.7 19.2l-17.9.1c-4.9 0-10.2.1-10.2-9.9v-14.1z"/><path class="st54" d="M440.7 247.9H428c-.6 0-1.1-.5-1.1-1.1 0-.6.5-1.1 1.1-1.1h12.7M360 214.7v16c3 0 5.4-2.4 5.4-5.4v-5.1c0-3-2.4-5.5-5.4-5.5z"/><path class="st38" d="M365.6 245.4H318c-1.4 0-2.5-1.1-2.5-2.5v-4.3c0-1.4 1.1-2.5 2.5-2.5h47.6c1.4 0 2.5 1.1 2.5 2.5v4.3c.1 1.4-1.1 2.5-2.5 2.5zM303.2 245.4h-31.5c-1.4 0-2.5-1.1-2.5-2.5v-4.3c0-1.4 1.1-2.5 2.5-2.5h31.5c1.4 0 2.5 1.1 2.5 2.5v4.3c0 1.4-1.1 2.5-2.5 2.5z"/><path class="st54" d="M213.4 230.2c1.9 0 3.5 1.6 3.5 3.5s-1.6 3.5-3.5 3.5"/><g><path class="st2" d="M379.7 266.6c0-10.9 8.9-19.8 19.8-19.8s19.8 8.9 19.8 19.8"/><path class="st1" d="M415.8 266.8c0 3.3-1 6.3-2.6 8.9-2.9 4.5-7.9 7.4-13.7 7.4-9 0-16.3-7.3-16.3-16.3 0-4 1.5-7.7 3.9-10.5 3-3.5 7.5-5.8 12.4-5.8 9 0 16.3 7.3 16.3 16.3z"/><g class="st40"><path class="st39" d="M413.2 275.7c-2.9 4.5-7.9 7.4-13.7 7.4-9 0-16.3-7.3-16.3-16.3 0-4 1.5-7.7 3.9-10.5l8.3 6.2 9.6 7.1 8.2 6.1z"/></g><path class="st2" d="M405.6 266.8c0 3.3-2.7 6.1-6.1 6.1-3.3 0-6.1-2.7-6.1-6.1 0-3.3 2.7-6.1 6.1-6.1 3.3 0 6.1 2.8 6.1 6.1z"/></g><g><path class="st2" d="M230.4 266.6c0-10.9 8.9-19.8 19.8-19.8s19.8 8.9 19.8 19.8"/><path class="st1" d="M266.5 266.8c0 3.3-1 6.3-2.6 8.9-2.9 4.5-7.9 7.4-13.7 7.4-9 0-16.3-7.3-16.3-16.3 0-4 1.5-7.7 3.9-10.5 3-3.5 7.5-5.8 12.4-5.8 9 0 16.3 7.3 16.3 16.3z"/><g class="st40"><path class="st39" d="M263.8 275.7c-2.9 4.5-7.9 7.4-13.7 7.4-9 0-16.3-7.3-16.3-16.3 0-4 1.5-7.7 3.9-10.5l8.3 6.2 9.6 7.1 8.2 6.1z"/></g><path class="st2" d="M256.2 266.8c0 3.3-2.7 6.1-6.1 6.1-3.3 0-6.1-2.7-6.1-6.1 0-3.3 2.7-6.1 6.1-6.1 3.4 0 6.1 2.8 6.1 6.1z"/></g></g><path class="st18" d="M194 195.5h47.5M184.8 205.6h47.4M561.8 189.1h47.4M572.6 199.2h47.5"/></g><g class="st12"><path class="st267" d="M-231.8 482c0-98.2 79.6-177.8 177.8-177.8S123.8 383.8 123.8 482"/><path class="st267" d="M120.1 482c0-98.2 79.6-177.8 177.8-177.8S475.7 383.8 475.7 482M479.4 482c0-98.2 79.6-177.8 177.8-177.8S835 383.8 835 482M-398.8 252.5h1581.3M56.6 285.3v-32.9M120.1 285.3v-32.9M183.6 285.3v-32.9M247.1 285.3v-32.9M310.6 285.3v-32.9M374.1 285.3v-32.9M437.6 285.3v-32.9M501.1 285.3v-32.9M564.6 285.3v-32.9M628.1 285.3v-32.9M691.6 285.3v-32.9M755.1 285.3v-32.9"/><path class="st1" d="M-399 273.7h1581.6v28.6H-399z"/><path class="st1" d="M106 295.6v168.6l-20 14v31.4h75.7v-33L139 461.5V295.6zM461.6 295.6v168.6l-20 14v31.4h75.7v-33l-22.7-15.1V295.6zM817.2 295.6v168.6l-20 14v31.4h75.7v-33l-22.7-15.1V295.6z"/></g></g></svg>