<svg id="Layer_1" data-name="Layer 1" xmlns="http://www.w3.org/2000/svg" width="300" height="270.4" viewBox="0 0 300 270.4">
  <defs>
    <style>
      .cls-1 {
        fill: #fd512d;
      }
    </style>
  </defs>
  <g>
    <g>
      <path class="cls-1" d="M145.7,102.2,143,120.4h6.8l7.5-28.1c4-10.9,9.8-17.4,17.4-19.7a18.2,18.2,0,0,0-7.8-1.8H115.7a19.3,19.3,0,0,0-4.9.7h3.1A31.4,31.4,0,0,1,145.7,102.2Z"/>
      <path class="cls-1" d="M141.3,63.9a18.1,18.1,0,1,0-18.1-18.1A18.1,18.1,0,0,0,141.3,63.9Z"/>
    </g>
    <path class="cls-1" d="M297,90.2a40.1,40.1,0,0,0-5.1-.5,58,58,0,0,0-7.4.7l-8.2-57.8A31.6,31.6,0,0,0,245,5.5C171.7-.2,129.5-3.3,55,5.5A31.6,31.6,0,0,0,23.7,32.6L15.5,90.4a58,58,0,0,0-7.4-.7,40.1,40.1,0,0,0-5.1.5C-.1,95-1,101.7,1.3,109A48.3,48.3,0,0,0,4,114.6l8.3.5c-3.4,27.1-5.9,37.3-6.8,64.6a58.7,58.7,0,0,0,3.8,22.4v56.5c0,6.5,6,11.8,13.4,11.8H44c7.3,0,13.3-5.3,13.3-11.8V238.9a56.3,56.3,0,0,0,5.8.3H236.9a56.3,56.3,0,0,0,5.8-.3v19.7c0,6.5,6,11.8,13.3,11.8h21.3c7.4,0,13.4-5.3,13.4-11.8V202.1a56.8,56.8,0,0,0,3.7-22.4h0c-.8-27.3-3.3-37.5-6.7-64.6l8.2-.5a29.3,29.3,0,0,0,2.8-5.6C301,101.7,300.1,95,297,90.2ZM34.3,94.5c3.3-23,8.4-59.2,8.4-59.2A12.5,12.5,0,0,1,55,24.7c76.1-8.8,115.1-5.7,190,0a12.5,12.5,0,0,1,12.3,10.6s5,35.7,8.3,58.7a19.3,19.3,0,0,1-8,18.4l-5.1-18.9c-4.3-11.8-10.7-17.6-19.9-17.6H181.4c-9.1,0-15.6,5.8-19.9,17.6l-8.3,31.2H138l3.3-22.5c0-13.3-10.9-26.3-27.4-26.3H69.1c-15,0-27.1,11.5-27.1,26l1.7,12A19.6,19.6,0,0,1,34.3,94.5ZM240.9,117l-5.2.8-3.2-11.9h5.4Zm-59.4-11.1-4.6,17.9-5.7.3,4.8-18.2ZM61.9,118.2l-1.4-11.1h4.4l1.4,11.7Zm58.9,6-4.2-.2,2-16.9h4.3Zm-77,46.7h.1c-8.8-2.6-15.8-6-20.3-9.8l-.3-.8a22.6,22.6,0,0,1,.5-15.9c11.8,6,30.5,10.1,50.7,10.2a32.9,32.9,0,0,1,2.7,5.7c2.3,7.3,1.5,13.9-1.7,18.8-1.7.1-3.1.5-5.1.5C57.2,179.5,45.3,175.6,43.8,170.9Zm177.6,27.4c-55.6,11.4-92.2,12.4-143.1.5a12.3,12.3,0,0,1-5.4-3.1c53,7.2,97,6.6,154.4-.8A13.6,13.6,0,0,1,221.4,198.3Zm55.3-38.1-.3.8c-4.5,3.8-11.5,7.2-20.2,9.8-.1,0,0,.1,0,.1-1.5,4.7-13.4,8.6-26.6,8.6-2,0-3.4-.4-5.1-.5-3.2-4.9-4-11.5-1.7-18.8a32.9,32.9,0,0,1,2.7-5.7c20.2-.1,38.9-4.1,50.7-10.2A22,22,0,0,1,276.7,160.2Z"/>
    <path class="cls-1" d="M207,70a20.4,20.4,0,1,0-20.3-20.4A20.3,20.3,0,0,0,207,70Z"/>
    <path class="cls-1" d="M91.7,70A20.4,20.4,0,1,0,71.3,49.6,20.3,20.3,0,0,0,91.7,70Z"/>
  </g>
</svg>
